<svg xmlns="http://www.w3.org/2000/svg" width="89.427" height="89.955" viewBox="0 0 89.427 89.955">
  <path id="Union_1" data-name="Union 1" d="M-107.54,13.613a2.113,2.113,0,0,1,2.253-2.629h17.65a2.38,2.38,0,0,1,2.253,1.877,23.106,23.106,0,0,0,34.172,14.27,2.835,2.835,0,0,1,3,.376L-35.816,39.9a2.412,2.412,0,0,1-.376,3.38,43.829,43.829,0,0,1-26.795,9.16A44.956,44.956,0,0,1-107.54,13.613ZM-30.56,34.267-42.952,21.875a2.273,2.273,0,0,1-.375-3c7.886-13.143.375-30.416-14.27-34.172a2.379,2.379,0,0,1-1.877-2.253V-35.2a2.282,2.282,0,0,1,2.628-2.254C-22.674-32.576-6.9,7.23-27.18,34.267a2.066,2.066,0,0,1-1.678.991A2.15,2.15,0,0,1-30.56,34.267Z" transform="translate(107.613 37.516)" fill="#6d44ff"/>
</svg>
